<?xml version="1.0" encoding="UTF-8" standalone="no"?>
<svg
   version="1.1"
   viewBox="0.0 0.0 285.65879265091866 283.3517060367454"
   fill="none"
   stroke="none"
   stroke-linecap="square"
   stroke-miterlimit="10"
   id="svg251"
   sodipodi:docname="gears.svg"
   inkscape:version="1.1.2 (0a00cf5339, 2022-02-04)"
   xmlns:inkscape="http://www.inkscape.org/namespaces/inkscape"
   xmlns:sodipodi="http://sodipodi.sourceforge.net/DTD/sodipodi-0.dtd"
   xmlns="http://www.w3.org/2000/svg"
   xmlns:svg="http://www.w3.org/2000/svg">
  <defs
     id="defs255" />
  <sodipodi:namedview
     id="namedview253"
     pagecolor="#ffffff"
     bordercolor="#666666"
     borderopacity="1.0"
     inkscape:pageshadow="2"
     inkscape:pageopacity="0.0"
     inkscape:pagecheckerboard="0"
     showgrid="false"
     inkscape:zoom="6.617218"
     inkscape:cx="142.80926"
     inkscape:cy="141.67585"
     inkscape:window-width="3840"
     inkscape:window-height="2092"
     inkscape:window-x="3840"
     inkscape:window-y="0"
     inkscape:window-maximized="1"
     inkscape:current-layer="svg251" />
  <clipPath
     id="p.0">
    <path
       d="m0 0l285.65878 0l0 283.3517l-285.65878 0l0 -283.3517z"
       clip-rule="nonzero"
       id="path164" />
  </clipPath>
  <g
     clip-path="url(#p.0)"
     id="g249"
     transform="matrix(1,0,0,-1,0,283.3517)">
    <path
       fill="#000000"
       fill-opacity="0"
       d="M 0,0 H 285.65878 V 283.3517 H 0 Z"
       fill-rule="evenodd"
       id="path167" />
    <path
       fill="#000000"
       fill-opacity="0"
       d="M 66.320724,116.27224 V 219.07539"
       fill-rule="evenodd"
       id="path169" />
    <path
       stroke="#ff0000"
       stroke-width="1"
       stroke-linejoin="round"
       stroke-linecap="butt"
       d="M 66.320724,116.27224 V 219.07539"
       fill-rule="evenodd"
       id="path171" />
    <path
       fill="#000000"
       fill-opacity="0"
       d="M 218.60472,116.45022 V 221.86754"
       fill-rule="evenodd"
       id="path173" />
    <path
       stroke="#ff0000"
       stroke-width="1"
       stroke-linejoin="round"
       stroke-linecap="butt"
       d="M 218.60472,116.45022 V 221.86754"
       fill-rule="evenodd"
       id="path175" />
    <path
       fill="#000000"
       fill-opacity="0"
       d="m 79.98403,83.286095 124.94488,0.18898"
       fill-rule="evenodd"
       id="path177" />
    <path
       stroke="#ff0000"
       stroke-width="1"
       stroke-linejoin="round"
       stroke-linecap="butt"
       d="m 79.98403,83.286095 124.94488,0.18898"
       fill-rule="evenodd"
       id="path179" />
    <path
       fill="#000000"
       fill-opacity="0"
       d="M 66.69657,132.14217 H 218.60209"
       fill-rule="evenodd"
       id="path181" />
    <path
       stroke="#ff0000"
       stroke-width="1"
       stroke-linejoin="round"
       stroke-linecap="butt"
       d="M 66.69657,132.14217 H 218.60209"
       fill-rule="evenodd"
       id="path183" />
    <path
       fill="#000000"
       fill-opacity="0"
       d="m 111.14249,211.3608 62.92913,0.0315"
       fill-rule="evenodd"
       id="path185" />
    <path
       stroke="#ff0000"
       stroke-width="1"
       stroke-linejoin="round"
       stroke-linecap="butt"
       d="m 111.14249,211.3608 62.92913,0.0315"
       fill-rule="evenodd"
       id="path187" />
    <path
       fill="#000000"
       fill-opacity="0"
       d="m 99.59596,78.32577 86.55118,0.314964"
       fill-rule="evenodd"
       id="path189" />
    <path
       stroke="#ff0000"
       stroke-width="1"
       stroke-linejoin="round"
       stroke-linecap="butt"
       d="m 99.59596,78.32577 86.55118,0.314964"
       fill-rule="evenodd"
       id="path191" />
    <path
       fill="#333333"
       d="M 110.4,46.81701 125.46161,2.880002 h 34.19174 l 15.06161,43.937008 z"
       fill-rule="evenodd"
       id="path193" />
    <path
       fill="#333333"
       d="m 110.30682,236.82735 15.06161,43.937 h 34.19175 l 15.0616,-43.937 z"
       fill-rule="evenodd"
       id="path195" />
    <path
       fill="#333333"
       d="m 237.9809,173.83333 43.93701,-15.0616 V 124.57998 L 237.9809,109.51837 Z"
       fill-rule="evenodd"
       id="path197" />
    <path
       fill="#333333"
       d="M 47.6779,173.83333 3.740896,158.77173 V 124.57998 L 47.6779,109.51837 Z"
       fill-rule="evenodd"
       id="path199" />
    <path
       fill="#333333"
       d="M 187.31403,51.7768 229.01484,31.367378 253.20377,55.556303 232.79435,97.25712 Z"
       fill-rule="evenodd"
       id="path201" />
    <path
       fill="#333333"
       d="m 52.864456,186.09459 -20.409424,41.70082 24.188927,24.18892 41.700813,-20.40942 z"
       fill-rule="evenodd"
       id="path203" />
    <path
       fill="#333333"
       d="m 187.37247,231.69603 41.71791,20.4178 24.17699,-24.17699 -20.41779,-41.71792 z"
       fill-rule="evenodd"
       id="path205" />
    <path
       fill="#333333"
       d="M 52.80922,97.13278 32.391423,55.41486 56.56841,31.237875 98.286332,51.655674 Z"
       fill-rule="evenodd"
       id="path207" />
    <path
       fill="#333333"
       d="m 32.057743,141.67586 v 0 c 0,-61.177498 49.59416,-110.77166 110.771647,-110.77166 v 0 c 29.37848,0 57.55368,11.670549 78.32739,32.444267 20.77371,20.773712 32.44426,48.948923 32.44426,78.327393 v 0 c 0,61.17749 -49.59414,110.77165 -110.77165,110.77165 v 0 c -61.177487,0 -110.771647,-49.59417 -110.771647,-110.77165 z"
       fill-rule="evenodd"
       id="path209" />
    <path
       fill="#000000"
       fill-opacity="0"
       d="m 218.5926,132.1431 v 0 c 4.1523,33.32284 -13.90204,65.4603 -44.52098,79.24919 l -31.42709,-69.78545 z"
       fill-rule="evenodd"
       id="path211" />
    <path
       fill="#000000"
       fill-opacity="0"
       d="m 218.5926,132.1431 v 0 c 4.1523,33.32284 -13.90204,65.4603 -44.52098,79.24919"
       fill-rule="evenodd"
       id="path213" />
    <path
       stroke="#ffffff"
       stroke-width="12"
       stroke-linejoin="round"
       stroke-linecap="butt"
       d="m 218.5926,132.1431 v 0 c 4.1523,33.32284 -13.90204,65.4603 -44.52098,79.24919"
       fill-rule="evenodd"
       id="path215" />
    <path
       fill="#ffffff"
       d="m 108.77153,141.60785 v 0 c 0,-18.7081 15.16592,-33.87401 33.87402,-33.87401 v 0 c 8.98395,0 17.59993,3.56886 23.95255,9.92147 6.3526,6.35261 9.92146,14.96859 9.92146,23.95254 v 0 c 0,18.70811 -15.16591,33.87402 -33.87401,33.87402 v 0 c -18.70811,0 -33.87402,-15.16591 -33.87402,-33.87402 z"
       fill-rule="evenodd"
       id="path217" />
    <path
       fill="#ffffff"
       d="m 60.661198,102.60893 v 0 c 0,-10.671707 8.651127,-19.322838 19.322834,-19.322838 v 0 c 5.124733,0 10.039574,2.035789 13.663307,5.659531 3.623734,3.623733 5.659531,8.538567 5.659531,13.663307 v 0 c 0,10.67171 -8.651131,19.32283 -19.322838,19.32283 v 0 c -10.671707,0 -19.322834,-8.65112 -19.322834,-19.32283 z"
       fill-rule="evenodd"
       id="path219" />
    <path
       fill="#ffffff"
       d="m 185.61858,102.78691 v 0 c 0,-10.671707 8.65112,-19.32283 19.32283,-19.32283 v 0 c 5.12474,0 10.03958,2.03579 13.66332,5.659523 3.62373,3.623734 5.65953,8.538574 5.65953,13.663307 v 0 c 0,10.67171 -8.65114,19.32284 -19.32285,19.32284 v 0 c -10.67171,0 -19.32283,-8.65113 -19.32283,-19.32284 z"
       fill-rule="evenodd"
       id="path221" />
    <path
       fill="#ffffff"
       d="m 123.32324,212.80199 v 0 c 0,-10.67171 8.65112,-19.32283 19.32283,-19.32283 v 0 c 5.12474,0 10.03958,2.03578 13.66332,5.65952 3.62373,3.62373 5.65953,8.53857 5.65953,13.66331 v 0 c 0,10.67171 -8.65114,19.32283 -19.32285,19.32283 v 0 c -10.67171,0 -19.32283,-8.65112 -19.32283,-19.32283 z"
       fill-rule="evenodd"
       id="path223" />
    <path
       fill="#000000"
       fill-opacity="0"
       d="m 75.00736,100.47767 66.92913,38.45669"
       fill-rule="evenodd"
       id="path225" />
    <path
       stroke="#ffffff"
       stroke-width="24"
       stroke-linejoin="round"
       stroke-linecap="butt"
       d="m 75.00736,100.47767 66.92913,38.45669"
       fill-rule="evenodd"
       id="path227" />
    <path
       fill="#000000"
       fill-opacity="0"
       d="m 142.63988,141.74623 v 70.80315"
       fill-rule="evenodd"
       id="path229" />
    <path
       stroke="#ffffff"
       stroke-width="24"
       stroke-linejoin="round"
       stroke-linecap="butt"
       d="m 142.63988,141.74623 v 70.80315"
       fill-rule="evenodd"
       id="path231" />
    <path
       fill="#000000"
       fill-opacity="0"
       d="m 99.59596,78.32577 v 0 c 26.14086,-17.78299 60.52574,-17.662125 86.54094,0.304199 l -43.49237,62.976871 z"
       fill-rule="evenodd"
       id="path233" />
    <path
       fill="#000000"
       fill-opacity="0"
       d="m 99.59596,78.32577 v 0 c 26.14086,-17.78299 60.52574,-17.662125 86.54094,0.304199"
       fill-rule="evenodd"
       id="path235" />
    <path
       stroke="#ffffff"
       stroke-width="12"
       stroke-linejoin="round"
       stroke-linecap="butt"
       d="m 99.59596,78.32577 v 0 c 26.14086,-17.78299 60.52574,-17.662125 86.54094,0.304199"
       fill-rule="evenodd"
       id="path237" />
    <path
       fill="#000000"
       fill-opacity="0"
       d="m 111.14356,211.35898 v 0 C 80.566198,197.54985 62.547525,165.43559 66.69657,132.14217 l 75.94796,9.46468 z"
       fill-rule="evenodd"
       id="path239" />
    <path
       fill="#000000"
       fill-opacity="0"
       d="m 111.14356,211.35898 v 0 C 80.566198,197.54985 62.547525,165.43559 66.69657,132.14217"
       fill-rule="evenodd"
       id="path241" />
    <path
       stroke="#ffffff"
       stroke-width="12"
       stroke-linejoin="round"
       stroke-linecap="butt"
       d="m 111.14356,211.35898 v 0 C 80.566198,197.54985 62.547525,165.43559 66.69657,132.14217"
       fill-rule="evenodd"
       id="path243" />
    <path
       fill="#000000"
       fill-opacity="0"
       d="m 210.3191,100.3492 -67.02362,38.70866"
       fill-rule="evenodd"
       id="path245" />
    <path
       stroke="#ffffff"
       stroke-width="24"
       stroke-linejoin="round"
       stroke-linecap="butt"
       d="m 210.3191,100.3492 -67.02362,38.70866"
       fill-rule="evenodd"
       id="path247" />
  </g>
  <path
     style="fill:#800000;stroke-width:0.151121"
     d="m 124.53768,277.49577 c -0.55193,-1.59999 -2.99577,-8.71992 -5.43077,-15.82206 l -4.42728,-12.91298 -2.18068,-0.62614 c -8.21832,-2.35969 -16.55348,-5.81969 -23.595891,-9.79485 l -2.042234,-1.15275 -15.15583,7.41818 -15.15583,7.41819 -11.991304,-11.9906 c -6.595219,-6.59482 -11.991305,-12.0465 -11.991305,-12.1148 0,-0.0683 3.298214,-6.86398 7.329364,-15.10146 4.03115,-8.23747 7.329364,-15.05224 7.329364,-15.14394 0,-0.0917 -0.548242,-1.15071 -1.218315,-2.35338 -4.063237,-7.29279 -7.65608,-16.04259 -9.814527,-23.9017 l -0.485315,-1.76708 -0.62578,-0.21725 c -1.723823,-0.59844 -28.3416021,-9.732 -29.6787745,-10.18391 l -1.5489893,-0.5235 v -17.04989 -17.04989 l 1.5489893,-0.52349 c 1.3371724,-0.45191 27.9549515,-9.58548 29.6787745,-10.18392 l 0.62578,-0.21724 0.485315,-1.76708 c 2.158447,-7.85911 5.75129,-16.608907 9.814527,-23.90171 0.670073,-1.202666 1.218315,-2.260138 1.218315,-2.349938 0,-0.0898 -3.295725,-6.892306 -7.323831,-15.116681 L 32.57762,55.612495 44.63298,43.551721 56.68834,31.490947 71.687164,38.829192 c 8.249354,4.036035 15.035746,7.338246 15.080874,7.338246 0.04513,0 0.939006,-0.485207 1.986401,-1.078237 6.951721,-3.936039 15.251961,-7.407361 23.297581,-9.7435 1.28603,-0.373413 2.37489,-0.73823 2.41968,-0.810701 0.0448,-0.07247 2.52881,-7.276823 5.52004,-16.009668 l 5.43862,-15.8779008 17.025,-0.00141 17.02501,-0.00141 0.29859,0.8689453 c 2.47888,7.2138705 9.85245,28.7051745 10.1883,29.6952585 0.24672,0.727269 0.53287,1.322308 0.6359,1.322308 0.35521,0 5.00553,1.373435 7.49283,2.212948 6.36721,2.149054 12.75183,4.967603 18.40388,8.124564 l 2.30949,1.289974 15.13788,-7.407494 15.13787,-7.407493 12.04214,12.058874 12.04216,12.058873 -6.52023,13.29864 c -3.58613,7.314252 -6.91898,14.122881 -7.40634,15.130287 l -0.88612,1.831646 1.21036,2.173059 c 4.14845,7.448033 7.73709,16.153639 9.87912,23.965579 l 0.50578,1.84455 3.02343,1.04263 c 1.66287,0.57345 8.85479,3.04141 15.98203,5.48435 l 12.95862,4.44173 v 17.00201 17.00201 l -12.95862,4.44173 c -7.12724,2.44295 -14.32554,4.91311 -15.99621,5.48926 l -3.03758,1.04752 -0.42138,1.53742 c -0.60117,2.19344 -2.23985,7.19813 -3.11912,9.52604 -1.84572,4.88675 -4.96388,11.5562 -7.20883,15.41902 -0.42959,0.73919 -0.78108,1.40037 -0.78108,1.4693 0,0.0689 3.29821,6.86634 7.32936,15.10541 4.03115,8.23905 7.32936,15.02354 7.32936,15.07664 0,0.12127 -23.91866,24.0528 -24.03987,24.0528 -0.0489,0 -6.2037,-2.99764 -13.67731,-6.6614 -7.47359,-3.66377 -14.24412,-6.96839 -15.04559,-7.3436 l -1.45723,-0.68219 -2.01855,1.1283 c -7.49763,4.19092 -16.64461,7.94763 -24.56524,10.08907 l -1.84311,0.49831 -0.89272,2.58139 c -0.49099,1.41975 -2.9256,8.51475 -5.41022,15.76667 l -4.5175,13.1853 H 142.5629 125.54118 Z m 23.26115,-53.31136 c 14.30623,-0.91563 28.41069,-5.60408 40.12977,-13.3395 0.90748,-0.599 1.65054,-1.13828 1.65127,-1.19841 0.002,-0.11885 -6.41063,-9.44635 -6.69872,-9.74452 -0.13619,-0.14093 -0.54637,0.0581 -1.81435,0.88022 -14.93274,9.68236 -32.97549,13.4058 -50.34721,10.39 -9.41668,-1.63478 -18.34747,-5.12561 -26.34173,-10.29638 -0.7898,-0.51085 -1.46045,-0.85087 -1.52914,-0.77526 -0.24892,0.27392 -6.50715,9.5498 -6.591702,9.77013 -0.06396,0.16669 0.456883,0.57319 1.924224,1.50184 10.788178,6.82763 22.436568,10.96226 35.031838,12.4347 4.38912,0.51311 10.1388,0.66179 14.58575,0.37718 z M 84.02555,199.70102 c 5.809026,-1.24739 10.652173,-5.00601 13.333484,-10.34771 0.734419,-1.46311 1.472769,-3.71879 1.738246,-5.31038 l 0.19601,-1.17511 11.25508,-6.47466 c 6.1903,-3.56106 11.49322,-6.59961 11.78427,-6.75235 l 0.52918,-0.27769 1.35983,0.89707 c 4.20846,2.77633 9.87537,4.74934 15.1003,5.25736 7.66065,0.74485 15.74264,-1.22686 21.84122,-5.32845 0.61937,-0.41656 1.20706,-0.75737 1.30597,-0.75737 0.0989,0 5.34998,2.98636 11.66901,6.63637 l 11.48918,6.63637 0.24775,1.36044 c 0.86625,4.75695 3.48877,9.02968 7.30564,11.90276 3.54936,2.67171 7.26145,3.92423 11.66367,3.93552 3.40041,0.009 5.98052,-0.59922 8.93557,-2.10546 5.30862,-2.70589 8.93574,-7.5062 10.20498,-13.50578 0.38074,-1.79964 0.37613,-5.77067 -0.009,-7.55605 -0.82403,-3.82242 -2.59985,-7.11431 -5.31267,-9.84823 -4.89567,-4.93375 -12.0288,-6.84292 -18.79817,-5.03131 l -1.35181,0.36175 -9.5665,-5.52679 c -5.26157,-3.03975 -10.34856,-5.97319 -11.3044,-6.51875 -0.95584,-0.54557 -1.75642,-1.0046 -1.77907,-1.02007 -0.0226,-0.0155 0.099,-0.871 0.27035,-1.90116 0.64006,-3.84843 0.55317,-8.38019 -0.23546,-12.27748 -2.26016,-11.16972 -9.97753,-20.42883 -20.6595,-24.78678 l -0.5667,-0.2312 V 97.928796 85.90171 l 1.48594,-1.468165 c 3.88736,-3.840874 5.8051,-8.408281 5.81949,-13.86008 0.0139,-5.271595 -1.73097,-9.64935 -5.35842,-13.443724 -3.88088,-4.059475 -9.14132,-6.163629 -14.79229,-5.916867 -5.11024,0.223153 -9.216,2.032662 -12.86471,5.669801 -2.8572,2.848131 -4.5147,5.931469 -5.36942,9.988328 -0.41632,1.975998 -0.37887,5.635545 0.0789,7.707166 0.86215,3.901948 2.53313,6.927402 5.40948,9.794299 l 1.41173,1.407088 v 12.135482 12.135482 l -0.71783,0.26771 c -1.3921,0.51918 -4.36414,2.112 -6.00705,3.21939 -8.42336,5.67765 -13.80744,14.61265 -14.88036,24.69428 -0.31133,2.9254 -0.16008,6.77578 0.38109,9.70152 0.12158,0.65726 0.20344,1.20634 0.18191,1.22016 -0.0215,0.0138 -5.21258,2.9944 -11.535676,6.62349 l -11.496542,6.59834 -1.435144,-0.36405 c -4.810324,-1.22024 -9.470204,-0.72541 -13.805359,1.46598 -5.365842,2.71239 -9.213913,7.87361 -10.280108,13.78815 -0.323036,1.79199 -0.323036,5.15824 0,6.95023 0.694746,3.854 2.566067,7.41301 5.363819,10.20133 0.792279,0.78961 1.953472,1.78702 2.580431,2.21646 2.325435,1.59286 5.403843,2.85079 7.851771,3.20846 0.623374,0.0911 1.303418,0.19545 1.511209,0.23191 0.904286,0.15874 4.382538,-0.0641 5.820479,-0.37286 z m -16.963933,-48.45405 5.70653,-0.70971 -0.07872,-0.46378 c -0.416971,-2.45674 -0.618133,-8.76213 -0.390851,-12.25121 0.517463,-7.94378 2.018324,-14.76716 4.803221,-21.83697 3.592257,-9.1194 8.836973,-17.116433 15.758491,-24.028226 4.546709,-4.540322 9.222382,-8.131156 14.662242,-11.260349 1.75132,-1.007419 5.47542,-2.93152 6.03496,-3.118032 0.11545,-0.03848 -0.70054,-2.017825 -2.26626,-5.497253 -1.34566,-2.990415 -2.4925,-5.488121 -2.54853,-5.550458 -0.056,-0.06234 -1.25455,0.454711 -2.66338,1.148994 -11.288158,5.562908 -20.971073,13.479605 -28.861565,23.597054 -1.69628,2.175024 -4.73664,6.732152 -6.187459,9.27424 -6.348341,11.1234 -9.964791,23.10051 -10.820376,35.83535 -0.196339,2.92239 -0.10862,10.47265 0.149238,12.84528 0.2925,2.69139 0.299475,2.71993 0.665165,2.72248 0.181919,0.001 2.8987,-0.31706 6.03729,-0.70741 z m 157.581473,0.66732 c 0.002,-0.0208 0.10482,-1.05784 0.23069,-2.30459 0.12585,-1.24675 0.27025,-3.96692 0.32086,-6.04484 0.40926,-16.80338 -4.324,-33.23615 -13.66174,-47.430342 -6.90657,-10.498598 -16.61313,-19.637249 -27.54513,-25.9335 -1.79569,-1.034227 -7.17499,-3.783378 -7.40297,-3.783378 -0.11623,0 -4.98899,10.715184 -4.984,10.959817 0.002,0.08116 1.00473,0.634657 2.22903,1.229984 15.32513,7.451902 27.72799,20.834174 34.15205,36.848939 3.7691,9.39611 5.54211,19.73333 5.03546,29.3584 -0.0916,1.74061 -0.23704,3.72674 -0.32317,4.41361 -0.0861,0.68688 -0.13644,1.26602 -0.11183,1.28699 0.1888,0.16077 12.05398,1.537 12.06075,1.39891 z"
     id="path411" />
</svg>
